<?xml version="1.0" encoding="UTF-8" standalone="no"?>
<!-- Created with Inkscape (http://www.inkscape.org/) -->
<svg id="svg2" xmlns:rdf="http://www.w3.org/1999/02/22-rdf-syntax-ns#" xmlns="http://www.w3.org/2000/svg" xml:space="preserve" height="1200" viewBox="0 0 2133.3333 1200" width="2133.3" version="1.1" xmlns:cc="http://creativecommons.org/ns#" xmlns:dc="http://purl.org/dc/elements/1.1/"><metadata id="metadata8"><rdf:RDF><cc:Work rdf:about=""><dc:format>image/svg+xml</dc:format><dc:type rdf:resource="http://purl.org/dc/dcmitype/StillImage"/><dc:title/></cc:Work></rdf:RDF></metadata><defs id="defs6"><clipPath id="clipPath18" clipPathUnits="userSpaceOnUse"><path id="path16" d="m0 0h1600v900h-1600z"/></clipPath><clipPath id="clipPath30" clipPathUnits="userSpaceOnUse"><path id="path28" d="m-215 1067h1888v-1344h-1888z"/></clipPath><clipPath id="clipPath34" clipPathUnits="userSpaceOnUse"><path id="path32" d="m-171 1067 1496-128 348-824v-364l-1888-28z"/></clipPath><clipPath id="clipPath38" clipPathUnits="userSpaceOnUse"><path id="path36" d="m-32768 32767h65535v-65535h-65535z"/></clipPath><linearGradient id="linearGradient48" gradientUnits="userSpaceOnUse" gradientTransform="matrix(1331.2 1446.5 1446.5 -1331.2 171.78 -220.38)"><stop id="stop40" stop-color="#fff" offset="0"/><stop id="stop42" stop-color="#fff" offset=".68268"/><stop id="stop44" stop-opacity="0" stop-color="#fff" offset=".85432"/><stop id="stop46" stop-opacity="0" stop-color="#fff" offset="1"/></linearGradient><mask id="mask50" height="1" width="1" y="0" x="0" maskUnits="userSpaceOnUse"><g id="g60"><g id="g58" clip-path="url(#clipPath38)"><g id="g56"><g id="g54"><path id="path52" d="m-32768 32767h65535v-65535h-65535z" fill="url(#linearGradient48)"/></g></g></g></g></mask><clipPath id="clipPath104" clipPathUnits="userSpaceOnUse"><path id="path102" d="m-82.31 1033.1h1508.3v-1216h-1508.3z"/></clipPath><clipPath id="clipPath108" clipPathUnits="userSpaceOnUse"><path id="path106" d="m-82.31 1033.1 1508.3-564.1-67.3-651.92h-1441z"/></clipPath><clipPath id="clipPath112" clipPathUnits="userSpaceOnUse"><path id="path110" d="m-32768 32767h65535v-65535h-65535z"/></clipPath><linearGradient id="linearGradient122" gradientUnits="userSpaceOnUse" gradientTransform="matrix(1031.3 1120.6 1120.6 -1031.3 164.09 -90.058)"><stop id="stop114" stop-color="#fff" offset="0"/><stop id="stop116" stop-color="#fff" offset=".68268"/><stop id="stop118" stop-opacity="0" stop-color="#fff" offset=".85432"/><stop id="stop120" stop-opacity="0" stop-color="#fff" offset="1"/></linearGradient><mask id="mask124" height="1" width="1" y="0" x="0" maskUnits="userSpaceOnUse"><g id="g134"><g id="g132" clip-path="url(#clipPath112)"><g id="g130"><g id="g128"><path id="path126" d="m-32768 32767h65535v-65535h-65535z" fill="url(#linearGradient122)"/></g></g></g></g></mask><clipPath id="clipPath178" clipPathUnits="userSpaceOnUse"><path id="path176" d="m-173.36 1013.3h1256.7v-1292.3h-1256.7z"/></clipPath><clipPath id="clipPath182" clipPathUnits="userSpaceOnUse"><path id="path180" d="m-173.36 1013.3 59.15-1292.3 1048 126.1 79.674 261.16 39.567 109.62 20.661 5.879 9.672 24.246z"/></clipPath><clipPath id="clipPath186" clipPathUnits="userSpaceOnUse"><path id="path184" d="m-32768 32767h65535v-65535h-65535z"/></clipPath><linearGradient id="linearGradient196" gradientUnits="userSpaceOnUse" gradientTransform="matrix(823.6 894.92 894.92 -823.6 -72.727 -61.938)"><stop id="stop188" stop-color="#fff" offset="0"/><stop id="stop190" stop-color="#fff" offset=".68268"/><stop id="stop192" stop-opacity="0" stop-color="#fff" offset=".85432"/><stop id="stop194" stop-opacity="0" stop-color="#fff" offset="1"/></linearGradient><mask id="mask198" height="1" width="1" y="0" x="0" maskUnits="userSpaceOnUse"><g id="g208"><g id="g206" clip-path="url(#clipPath186)"><g id="g204"><g id="g202"><path id="path200" d="m-32768 32767h65535v-65535h-65535z" fill="url(#linearGradient196)"/></g></g></g></g></mask><clipPath id="clipPath252" clipPathUnits="userSpaceOnUse"><path id="path250" d="m-238.84 856.93h1036v-1294.9h-1036z"/></clipPath><clipPath id="clipPath256" clipPathUnits="userSpaceOnUse"><path id="path254" d="m-168.18 856.93 965.36-651.93-101.42-101.78-36.09-0.89-122.07-102.4-420.84-437.93-355.6 465.01z"/></clipPath><clipPath id="clipPath260" clipPathUnits="userSpaceOnUse"><path id="path258" d="m-32768 32767h65535v-65535h-65535z"/></clipPath><linearGradient id="linearGradient270" gradientUnits="userSpaceOnUse" gradientTransform="matrix(641.64 697.2 697.2 -641.64 -159.91 15.475)"><stop id="stop262" stop-color="#fff" offset="0"/><stop id="stop264" stop-color="#fff" offset=".68268"/><stop id="stop266" stop-opacity="0" stop-color="#fff" offset=".85432"/><stop id="stop268" stop-opacity="0" stop-color="#fff" offset="1"/></linearGradient><mask id="mask272" height="1" width="1" y="0" x="0" maskUnits="userSpaceOnUse"><g id="g282"><g id="g280" clip-path="url(#clipPath260)"><g id="g278"><g id="g276"><path id="path274" d="m-32768 32767h65535v-65535h-65535z" fill="url(#linearGradient270)"/></g></g></g></g></mask><linearGradient id="linearGradient70-25" gradientUnits="userSpaceOnUse" gradientTransform="matrix(1331.2 1446.5 1446.5 -1331.2 171.78 -220.38)"><stop id="stop9894" stop-color="#0c0c0c" offset="0"/><stop id="stop9896" stop-color="#0c0c0c" offset=".68268"/><stop id="stop9898" stop-color="#0c0c0c" offset=".85432"/><stop id="stop9900" stop-color="#0c0c0c" offset="1"/></linearGradient><linearGradient id="linearGradient144-86" gradientUnits="userSpaceOnUse" gradientTransform="matrix(1031.3 1120.6 1120.6 -1031.3 164.09 -90.058)"><stop id="stop9903" stop-color="#0c0c0c" offset="0"/><stop id="stop9905" stop-color="#0c0c0c" offset=".68268"/><stop id="stop9907" stop-color="#0c0c0c" offset=".85432"/><stop id="stop9909" stop-color="#0c0c0c" offset="1"/></linearGradient><linearGradient id="linearGradient218-138" gradientUnits="userSpaceOnUse" gradientTransform="matrix(823.6 894.92 894.92 -823.6 -72.727 -61.938)"><stop id="stop9912" stop-color="#0c0c0c" offset="0"/><stop id="stop9914" stop-color="#0c0c0c" offset=".68268"/><stop id="stop9916" stop-color="#0c0c0c" offset=".85432"/><stop id="stop9918" stop-color="#0c0c0c" offset="1"/></linearGradient><linearGradient id="linearGradient292-133" gradientUnits="userSpaceOnUse" gradientTransform="matrix(641.64 697.2 697.2 -641.64 -159.91 15.475)"><stop id="stop9921" stop-color="#0c0c0c" offset="0"/><stop id="stop9923" stop-color="#0c0c0c" offset=".68268"/><stop id="stop9925" stop-color="#0c0c0c" offset=".85432"/><stop id="stop9927" stop-color="#0c0c0c" offset="1"/></linearGradient></defs><g id="g10" transform="matrix(1.3333 0 0 -1.3333 0 1200)"><g id="g12"><g id="g14" clip-path="url(#clipPath18)"><g id="g20" transform="translate(1785,1121)"><path id="path22" d="m0 0 32-1268s-1888-20-1884 24-104 1192-104 1192z" fill="#969696"/></g><g id="g24"><g id="g88"><g id="g86" opacity="0.39" clip-path="url(#clipPath30)"><g id="g84"><g id="g82" clip-path="url(#clipPath34)"><g id="g80"><g id="g78" mask="url(#mask50)"><g id="g76"><path id="path74" opacity="1" d="m-171 1067 1496-128 348-824v-364l-1888-28z" fill="url(#linearGradient70-25)"/></g></g></g></g></g></g></g></g><g id="g90" transform="translate(-195.13 1067)"><path id="path92" d="m0 0 1496-128 348-824v-364l-1888-28z" fill="#b0b0b0"/></g><g id="g94" transform="translate(1392.3 504.92)"><path id="path96" d="m0 0 226.59 143.28 15.002-744.07-313.78 95.874z" fill="#c9c9c9"/></g><g id="g98"><g id="g162"><g id="g160" opacity="0.39" clip-path="url(#clipPath104)"><g id="g158"><g id="g156" clip-path="url(#clipPath108)"><g id="g154"><g id="g152" mask="url(#mask124)"><g id="g150"><path id="path148" opacity="1" d="m-82.31 1033.1 1508.3-564.1-67.3-651.92h-1441z" fill="url(#linearGradient144-86)"/></g></g></g></g></g></g></g></g><g id="g164" transform="translate(-103,1069)"><path id="path166" d="m0 0 1495.3-564.08-67.3-651.92h-1428z" fill="#cacaca"/></g><g id="g168" transform="translate(1023.4 209.4)"><path id="path170" d="m0 0 576.57 163.6v-373h-653.17z" fill="#b8b8b8"/></g><g id="g172"><g id="g236"><g id="g234" opacity="0.39" clip-path="url(#clipPath178)"><g id="g232"><g id="g230" clip-path="url(#clipPath182)"><g id="g228"><g id="g226" mask="url(#mask198)"><g id="g224"><path id="path222" opacity="1" d="m-173.36 1013.3 59.15-1292.3 1048 126.1 79.674 261.16 39.567 109.62 20.661 5.879 9.672 24.246z" fill="url(#linearGradient218-138)"/></g></g></g></g></g></g></g></g><g id="g238" transform="translate(-103,993)"><path id="path240" d="m0 0 36-1240 964 116 156 420z" fill="#e5e5e5"/></g><g id="g242" transform="translate(630.13 102.21)"><path id="path244" d="m0 0 969.87 14.935v-117.14h-1079.2z" fill="#9f9f9f"/></g><g id="g246"><g id="g310"><g id="g308" opacity="0.39" clip-path="url(#clipPath252)"><g id="g306"><g id="g304" clip-path="url(#clipPath256)"><g id="g302"><g id="g300" mask="url(#mask272)"><g id="g298"><path id="path296" opacity="1" d="m-168.18 856.93 965.36-651.93-101.42-101.78-36.09-0.89-122.07-102.4-420.84-437.93-355.6 465.01z" fill="url(#linearGradient292-133)"/></g></g></g></g></g></g></g></g><g id="g312" transform="translate(-47,833)"><path id="path314" d="m0 0 847-572-659-616-312 408z" fill="#fff"/></g></g></g></g></svg>
